<?xml version="1.0" encoding="UTF-8"?>
<svg id="Layer_1" data-name="Layer 1" xmlns="http://www.w3.org/2000/svg" viewBox="0 0 396.88 396.88">
  <defs>
    <style>
      .cls-1 {
        fill: #0a0a0b;
        stroke: #000;
      }

      .cls-1, .cls-2 {
        stroke-miterlimit: 10;
      }

      .cls-2 {
        fill: none;
        stroke: #b19563;
        stroke-width: 2px;
      }
    </style>
  </defs>
  <circle class="cls-1" cx="198.44" cy="198.44" r="197.94"/>
  <g>
    <path class="cls-2" d="M314.84,327.93c1.45.2,2.15.64,2.13,1.82-.07,4.37-6,2.03-9.37,2.02l-32.11-.14-95.94.13-96.96.02c-1.69,0-2.51-.35-2.63-1.26-.25-1.79.63-2.43,2.43-2.53,3.74-.22,1.53-7.98,3.76-10.43s3.35-3.93,4.01-7.26c.35-1.77,2.15-3.33,3.2-5.32l.06-103.96c-.06-1.55-1.82-2.89-2.36-3.76,1.44-3.16.99-5.86-1.84-7.94-.25-1.56-.03-4.33-1.43-5.57-1.46-.59-3.12-3.31-1.82-4.01,2.02-.39,4.42.72,7.05-.64.87-52.74,25.88-102.81,66.3-136.19,10.79-8.91,21.9-16.12,33.95-23.06,2.35-1.35,3.88-2.74,4.17-6.26,1.88,1.19,1.82,2.46,2.49,4.14,47.01,26.65,80.45,61.96,96.35,114.26l3.36,12.89,2.91,15,1.34,18.81c3.89,2.39,8.1-.62,7.29,2.82-.18.75-.76,1.84-1.78,2.19-2.55.88-1.26,4.11-2.11,5.06-2.04,2.29-2.04,5.57-2.47,8.2-.54,3.27-1.57,5.4-1.57,9.14l.12,63.89-.25,32.03c-.02,3.16.29,4.8,3.02,6.74,1.2.99,1.18,4.13,1.62,5.85,7.11,3.72,1.2,12.53,7.09,13.33ZM276.89,135.64l4.93,16.98,1.95,13.16c.67,4.5,1.03,8.49.93,13.37,5.36,1.02,10.34,1.23,15.96-.05-.94-13.58-2.09-26.51-5.83-39.25l-2.97-10.12c-3.95-13.47-10.06-25.77-17.13-37.8-5.72-9.74-12.15-18.04-19.62-26.53-14.96-17-32.77-30.2-52.24-41.69-3.09-1.82-5.9-3.09-9.01-.32l-26.58,17.36c-43.18,33.18-69.68,83.44-71.03,138.25,5.39,1.35,10.2,1.21,15.42.22,1.64-57.82,36.9-106.99,85.65-135.19l.56-21.41c2.28,6.29,1.76,12.58,1.08,19.46-.18,1.78,2.29,3.24,3.45,3.99l7.33,4.71c9.97,6.4,18.2,14.14,26.6,22.4,17.01,16.73,33.97,39.8,40.55,62.44ZM273.83,154.66l2.98,24.27c.13,1.02,4.32,1.03,4.49.02,1.01-5.92.28-12.03-.99-17.67l-3.66-16.3-3.76-12.22-4.41-10.68-10.22-18.73c-4.44-8.14-10.17-14.87-16.68-21.35l-11.57-11.52c-9.53-8.08-18.96-15.77-29.74-22.28-2.09-1.26-3.96-.2-5.58.89l-14.99,10.11c-32.55,24.71-53.35,54.37-62.25,94.67-1.89,8.55-3.07,17.09-2.59,25.43,1.94.42,3.48.28,4.13-.11,1.38-.84.71-12.42,3.55-23.22l4.16-15.83,4.26-11.81c14.18-32.37,37.13-56.39,67.37-74.42,38.6,23.27,65.35,56.83,75.49,100.75ZM199.59,264.61l-.23,58.39c0,1.39-.58,3.3.52,4.17.71.57,2.16.87,3.77.87l68.96.07c2.11-6.89,1.45-13.29,1.42-20.12l-.16-32.02-.11-64.91.17-26.93c-1-.81-2.28-2.02-2.29-3.11s1.27-2.24,2.08-3.06c.1-10.84-1.8-20.69-4.9-31.13-8.06-27.15-23.16-50.9-44.31-69.71l-24.13-18.22c-1.35-1.02-3.21-.76-4.49.16l-18.19,13.11c-21.43,17.69-37.86,39.59-47.09,65.86-4.29,12.21-7.1,24.03-7.82,37-.15,2.61.54,3.68,2.66,5.44.82.68-1.47,2.66-2.57,2.94v16.32s-.17,106.17-.17,106.17c-.01,7.39-.48,13.88,1.2,21.26,3.63,1.13,7.62,1.05,11.7,1.03l61.94-.29-.94-19.9-.04-33.02c0-4.17-.11-9.22.93-13.12.93-.38,2.11.8,2.1,2.74ZM112.34,195.64l2.03-4.79c1.12-2.64,2.72-4.74,2.38-8.08l-25.16.15c-2,3.89,3.24,6.27,3.13,12.82l17.62-.08ZM301.11,195.51l2.27-5.69c.94-2.37,2.72-3.98,2.12-7l-25.98.06c-.34,3.97,3.33,7.34,4.03,12.86l17.57-.23ZM118.91,315l1.15-12.09-.17-98.8-.28-18.64-3.22,7.29c-1.01,2.29-1.69,5.54-1.69,8.35l.05,105.54c2.27,2.27,4.29,5.2,4.16,8.35ZM282.27,250.55l-.02-16.55-.29-33.91-2.03-7.8c-.52-2.01-2.33-4.68-3.35-6.47l.04,128.64c1.88-2.51,2.86-5.59,5.65-8l.08-21.47-.08-34.44ZM96.46,198.68l-.02,108.65h15.22s.02-108.64.02-108.64h-15.22ZM285.11,198.53l-.18,108.84,15.15.02.18-108.84-15.15-.02ZM115.94,315.46c1.12-1.8-.34-5.11-1.66-5.11l-20.44-.06c-1.29,0-2.48,3.81-1.42,4.91l23.53.27ZM304.38,315.22c.6-2.82-.16-4.17-.79-4.75-.59-.54-1.86-.73-2.96-.7l-17.08.44c-1.53.04-2.75,3.22-2.9,4.91l23.74.11ZM117.92,318.49l-28.14-.15c-2.45,1.66-2.99,6.66-2.04,9.47h32.62c.9-2.42.25-8.43-2.44-9.32ZM308.54,327.85c1.45-3.38.56-9.18-2.26-9.24l-23.77-.56c-1.7-.04-4.18.41-5.11,1.68-1.78,2.43-2.19,5.3-1.88,8.19l33.02-.07Z"/>
    <path class="cls-2" d="M200.18,245.71l4.23,4.87c-2.78,2.02-4.16,3.72-6.15,7.26l-5.37-7c-.97-1.66,1.81-3,2.6-3.99,3.15-3.98,1.99-9.76-.82-13.89l-15.63-22.91c-1.89-2.78-8.59-.21-10.07,2.07-2.3-.92-4.19-3.05-4.17-4.55,1.34-1.8,2.22-3.07,4.95-4.62.29,1.41.59,3.06,2.21,3.86s5.58,1.04,7.16-.19l16.61-26.48c1.72-2.74,1.54-6.86.66-9.78s-5.5-3.73-2.93-7.36l4.87-6.86c1.85,4.06,3.56,6.17,6.11,8.89l-4.23,4.7c-2.16,2.4-1.53,6.8.06,9.39l4.98,8.09,9.24,14.75c1.29,2.06,1.78,4.58,3.84,5.02,2.78.59,5.96.95,7.53-1.78.57-1,1.89-2.48,2.86-1.33l3.63,4.29-4.98,5.08c-1.36-3.49-3.65-4.15-6.74-4.13-3.33.02-4.1,1.3-5.57,3.64l-14.96,23.85c-1.47,2.34-1.83,6.91.08,9.11ZM199.96,165.02c.08-1.32-1.07-2.42-1.87-2.41-.68.01-1.74,1.17-1.78,2.39s1.07,2.52,1.75,2.51c.89-.02,1.82-1.23,1.9-2.5ZM193.74,224.33c1.73,2.71,2.31,5.93,4.54,7.87l14.97-24.2-15.07-24.43-14.2,23.02c-1.01,1.63-.26,3.74,1.36,4.64l8.4,13.11ZM197.26,247.9l-.86,3.83,2.74.61.86-3.83-2.74-.61Z"/>
    <path class="cls-2" d="M199.52,148.42c0,2.56-.81,4.52-1.47,6.78l-1.43-6.25.02-56.86c0-1.3.72-2.1,1.42-2.08.82.02,1.5.75,1.5,2.05l-.02,56.36Z"/>
    <path class="cls-2" d="M202.3,208.21c.31,1.98-2.51,4.85-4.61,4.57-1.72-.22-4.15-3.04-3.84-4.6.42-2.14,2.41-3.58,3.93-5.45,1.95.96,4.13,2.98,4.52,5.48Z"/>
  </g>
</svg>