<?xml version="1.0" encoding="UTF-8"?>
<svg id="Layer_1" data-name="Layer 1" xmlns="http://www.w3.org/2000/svg" viewBox="0 0 396.88 396.88">
  <defs>
    <style>
      .cls-1 {
        fill: #0a0a0b;
        stroke: #000;
      }

      .cls-1, .cls-2 {
        stroke-miterlimit: 10;
      }

      .cls-2 {
        fill: none;
        stroke: #b19563;
        stroke-width: 2px;
      }
    </style>
  </defs>
  <circle class="cls-1" cx="198.44" cy="198.44" r="197.94"/>
  <g>
    <path class="cls-2" d="M195.34,336.89c-.73,1.88-3.14,3.29-5.27,2.16-1.5-.8-2.48-1.84-2.77-2.82-1.15-3.92,2.37-5.55,2.39-6.71.04-2.7-15.31-8.81-23.49-11.93-3.48-1.33-6.69-1.97-10.34-2.73l-20.91-4.34-22.99-1.71-31.5-.37-.25,14.11c-.02,1.07-.25,1.69-.96,2.08-.46.25-1.88.35-1.95-.76l-.98-14.59c-.63-.34-2.45-.83-2.72-1.25s-.12-1.53.14-2.01c2.79-.59,3.27-2.19,3.27-5.09v-154.71c.01-3.84-1.61-6.1-5.41-7.14,5.1-10.05,9.07-19.36.26-23.18,3.01-3.76,4.7-6.54,6.19-11.47l3.85,7.71c.41.82,2.73,2.67,1.96,3.64-6.64,4.85-3.89,14.2.96,22.33l-3.58,3.35c-1.77,3.71-1.44,7.8-.64,12.11l15.42-.04c2.21,0,1.74-4.12,2-5.47,2-10.18,4.91-19.42,9.56-28.49,7.64-14.9,17.09-28.18,29.41-39.43l16.22-14.81,36.58-31.37c3.5-3,6.42-6.4,8.64-10.44,1.26-2.3-.62-7.81,2.18-8.08,3.61-.34-.31,7.23,6.27,13.72l9.57,9.44,21.62,18.42,25.33,22.6c13.31,11.88,23.9,25.93,31.69,42.02l4.1,9.97,3.82,11.91,1.69,10.1,15.51.12c2.58-5.57,1.49-13.72-3.78-14.93,4.6-9.65,8.11-18.89.05-23.38,4.68-4.4,4.36-10.16,6.05-10.35,2.21-.24,1.34,5.02,4.99,8.43,3.2,2.99-3.92,4.59-3.45,9.43.41,4.22,1.36,8.89,3.3,12.63.48.92,2.56,2.8.95,3.76-2.28,1.35-4.13,2.48-4.13,5.87l.06,157.78c0,2.05,3.17,2.17,3.51,3.05.68,1.78-1.9,3.15-3.31,3.57l-.48,14.44c-.03.96-1,.97-1.39.85-.72-.23-1.34-.79-1.4-1.96l-.81-14.37-20.44-.02c-15.93-.02-31.4.6-46.82,4.4l-9.62,2.37-7.52,2.37c-4.65,1.46-8.99,2.62-13.25,4.92l-11.75,6.34c2.36,2.06,3.88,3.45,3.92,5.64.04,2.05-1.26,4.86-4,4.85-2.89-.02-10.09-6.14-8.14-.36,1.19,3.52.9,7.23-2.02,10.26-4.94-5.61.34-12.27-4.27-13.24l-1.13.82ZM195.17,328.46c2.99-4.09,3.95-7.39,4.65-11.29.76-.22,1.59,0,1.76.18.56,3.95,1.6,7.38,4.5,11.06,11.47-7.95,29.18-15.29,42.32-17.85l20.14-3.92c-3.9-.98-8.05-1.31-12.54-1.51l-23-1.02-11.64-.59c-1.15-.06-1.36-1.06-.95-1.47.45-.45.96-.58,1.79-.53l44.78,2.66,16.97,1.27,17.98-.51-.04-140.79c0-17.09-4.93-32.42-12.95-47.14-8.77-16.09-20.94-29.22-34.55-41.37-8.52-7.6-16.95-15.04-25.64-22.37l-9.23-7.79c-6.98-5.89-13.2-11.87-18.97-19.51-3.73,5.64-8.26,10.51-13.64,15.05l-22.2,18.8c-11.32,9.58-22.28,18.77-32.27,29.71-18.94,20.73-32.23,45.02-32.58,73.54l-.32,26.1.29,102.79.39,12.92,22.61.34,13.4-1.56,19.7-.5,9.07-.87,17.9-.21c-.05.98-1.05,1.98-1.86,1.98l-17.07-.05c-2.94,1.19-5.89,1.03-9.02,1.09l-25.57.49,18.33,3.73,16.55,4.56,12.51,4.5c6.67,2.4,12.07,6.08,18.38,10.1ZM80.59,114.87c-.4-2.19-1.56-3.6-2.17-4.91l-1.16,2.43c-.52,1.09-1.16,2.05-.98,3,.15.8.85,1.71,2.15,2.66.58-.44,2.42-1.8,2.17-3.19ZM322.49,117.49c2.54-.8,2.99-4.06.78-5.98.17-1.67-1.9-1.52-1.35.17-1.02,1.25-1.66,2.68-1.58,3.61.06.69,1.46,2.35,2.14,2.2ZM79.01,139.61c1.93-.59,2.88-1.97,2.4-3.55-.33-1.08-.93-2.21-2.21-3.02l-.19,6.57ZM321.88,138.88c.19-2.8.28-3.9-.26-5.95-.83,1.21-1.35,2.44-1.75,4.2-.36,1.6.82,2.43,2.02,1.76ZM76.8,139.09l.03-5.09c-1.38.57-1.9,1.48-1.92,2.56s.66,2.06,1.88,2.53ZM324.43,138.9c1.17-.32,1.81-1.78,1.54-2.3-.17-.32-.63-.82-1.55-1.51-.77.87-.77,3.16.01,3.81ZM80.07,155.99l-.08,149.55h16.95s.08-149.54.08-149.54h-16.95ZM321.15,156.03l-16.58.03.23,149.03,16.58-.03-.23-149.03ZM200.4,336.15l3.51-6.09c-.35-2.54-2.29-4.47-3.54-6.21l-3.31,6.69c1.97,2.01,2.64,3.66,3.35,5.61ZM212.83,334.56c.22-1.63-3.62-3.28-6.06-2.4-1.22.44-3.24,2.91-2.21,3.75,1.71,1.39,7.9,1.48,8.27-1.35ZM195.96,335.55c.17-.54.25-1.48.03-1.97-.94-2-5.3-1.82-6.4-.13-.4.61.06,2.09,1.38,2.79,1.68.89,3.42.16,4.56-.35.05-.13.22-.28.43-.35Z"/>
    <path class="cls-2" d="M200.75,311.52c-4.05.27-7.06-5.51-6.65-8.96-2.37-2.16-4.98-1.5-7.18-2.43-8.36-3.51-16.77-4.34-25.41-6.09-6.55-1.33-12.56-2.22-19.53-2.53l-11-.48-24.11.05.11-125.66c2.8-.38,4.98-.07,7.32-1.06l.8-10.16,8.98-.34.41-11.44c7.66-1.65,14.96.4,22.53,1.68,8.57,1.45,14.83,3.76,22.33,7.52,7.07,3.54,13.67,7.1,19.17,12.94l10.15,10.77.94-8.36c.32-2.82-1.82-5.49-1.84-7.87-.02-1.82,1.39-3.73.69-4.93-1.31-2.24-2.92-2.56-4.93-2.32.05-.54.05-1.09-.18-1.83,1.6-.59,3.47-1.59,4.17-3.51l3.35-9.16c3.47,4.41,1.85,10.12,6.8,12.05.85.33.89,1.65.42,2.09-.98.91-3.4.32-4.77,2.49-.61.96-.68,2.67-.09,3.47,1.73,2.35-.32,3.5-.67,4.96-1.17,4.95-.62,9.48-.25,14.98,7.88-11.57,18.23-20.02,30.7-26.26l7.76-3.28c8.89-3.76,25.63-6.34,36.14-5.52l.08,11.6,10.43.54c.06,2.88-.7,5.86.44,8.64.61,1.49,3.92,1.7,6.11,1.35l.38,24.81-.26,101.71-29.55.26c-8.44.07-15.93.77-24.1,2.88-5.48,1.42-11.32,1.6-16.96,3.28l-16.7,4.96c.74,3.67-1.88,8.86-6.04,9.14ZM199.14,183.63c0-3.85-2.02-6.58-4.01-8.71-5.23-5.62-10.54-10.89-17.02-15.06l-5.61-3.61-4.67-1.97c-2.48-2.09-4.93-2.5-7.81-3.42-10.09-3.2-21.46-6.38-32.24-5.8l-.56,19.27-.14,101.27c11.21.51,24.3,1.93,34.23,6.24l8.3,3.6c11.71,5.08,21.63,12.61,29.32,23l.12-28.46.11-86.35ZM200.92,154.55c2.52-3.22,2.41-6.72-.06-10-2.96,3.76-3.14,6.64.06,10ZM202.55,297.63c10.12-9.71,18.43-17.26,29.89-22.02,2.99-2.06,6.42-3.16,9.99-3.89,9.62-4.36,21.52-5.68,32.04-5.98l-.22-120.69c-5.62-1.09-10.48.83-15.52,1.32-8.38.82-25.21,7.04-32.65,11.73-8.5,5.36-23.61,17.88-23.61,25.03l.07,114.5ZM196.22,299.3c-6.37-10.45-16.23-15.79-25.75-20.87l-10.26-4.66c-3.5-1.59-6.5-2.13-10.28-2.77-8.54-1.46-16.7-3.07-25.52-2.29l.45-15.75-.09-96.35c-3.04-.9-5.57-.66-8.54,0l-.1,13.53-.24,72.84c1.19,3.06,1.15,5.93,1.1,9.09l-.41,26.15c11.69-.66,21.95.88,32.93,2.38l9.59,1.31,9.6,3.53c9.89,3.64,17.89,9.55,27.5,13.87ZM231.93,285.77l11.78-3.78,24.23-3.86,17-.13.13-104.83-.1-16.89-7.96-.09.04,112.57c-11.95-.94-24.17,1.41-35.09,5.16-14.13,5.16-27.49,13.15-37.12,25.12,5.78-.33,8.3-4.94,12.8-6.23l5.86-3.13,8.42-3.91ZM169.01,287.56l-8.12-2.36-12.51-2.67c-11.11-2.37-21.86-3.33-33.34-1.29-.9-3.44-.11-6-.11-9.29l.07-93.81c0-3.98-.11-7.21-1.05-11.09-1.66-.07-2.95.02-4.47.52l-.52,14.56.06,91.82.97,13.83c6.26,1.46,11.85.42,18.01.74l23.53,1.24,19.21,3.66c5.48,1.04,10.39,3.8,16.5,3.35-5.71-3.45-11.2-7.2-18.23-9.24ZM231.41,293.68l19.78-4.07,17.77-1.3,21.88-.54.29-37.76.48-80.11c.01-1.8-1.11-2.76-2.12-2.97-.61-.13-2.48-.37-2.48,1.23l-.02,109.77c0,1.28-.56,2.23-1.06,2.49-1.06.55-24.04-2.67-48.49,5.93-3.32,1.17-6.41,1.73-9.65,3.48l-13.05,7.05c6.15.6,11.14-2.07,16.68-3.21ZM204.28,305.61c-.34-2.59-3.08-2.89-4.48-2.36-.9.34-2.59,1.14-2.53,2.77.07,1.93,2.11,2.92,3.3,3.05,1.59.17,4.03-1.02,3.71-3.46Z"/>
    <path class="cls-2" d="M213.28,108.45c-.13,3.38.58,7.71-1.66,10.69-2.12,2.82-5.12,4.57-9.46,5.12s-10.04-1.65-12.51-5.71c-2.05-3.38-1.22-7.32-1.06-10.68-7.46,1.62-14.27-1.94-15.76-8.47-1.19-5.2-.34-10.06,2.81-13.25,3.61-3.67,7.9-5.1,13.23-3.94-2.52-7.13,1.29-14.15,7.3-16.5,6.58-2.58,14.24.69,16.54,7.5.98,2.9.37,5.77.2,8.9,4.81-.8,8.29.06,11.68,2.73,6.19,4.89,6.08,17.41-1.16,21.62-2.69,1.57-6.32,1.57-10.13,1.98ZM206.22,120.76c6.28-3.6,6.58-10.67,2.1-17.18,5.45,2.31,8.54,3.72,13.11,1.54,3.45-1.65,5.86-5.28,5.8-10.05s-2.44-8.32-5.86-10.15c-4.38-2.35-7.97-.89-12.71,1.59,4.5-7.45,2.86-15.43-4.3-18.78-4.11-1.92-8.59-.38-11.36,2.74-2.62,2.96-3.76,7.23-1.99,11.5l1.95,4.7c-2.17.52-3.13-1.51-4.45-2.03-5.1-2.03-10.36.67-12.8,4.66s-2.25,9.06.88,13.34c3.76,5.15,10.35,4.08,15.92,1.46-3.18,6.12-2.92,10.77.4,14.68,3.02,3.56,8.52,4.73,13.31,1.99Z"/>
    <path class="cls-2" d="M220.36,57.14c-3.76-3.59-8.8-6.08-11.6-11.09l12.37,9.93c-.07.52.3.7.65.55l20.05,16.71,17.7,16.25,11.96,13.02c11.65,12.69,19.37,28.36,22.57,45.68-3.45-3.52-3.42-8.52-5.32-12.8l-3.73-8.42-5.04-8.91c-7.5-13.26-22.29-28.38-34.25-38.79l-24.6-21.42-.76-.73Z"/>
    <path class="cls-2" d="M118.46,122.59c-2.49,4.59-6.37,13-7.29,16.82-.79,3.25-1.29,6.68-4.21,8.81l3.71-12.63,3.21-7.78c11.35-27.5,45.65-55.58,70.37-75.08-5.64,7.42-13.24,12.27-20.05,18.52-16.55,15.2-35.02,31.57-45.74,51.33Z"/>
    <rect class="cls-2" x="184.8" y="49.34" width="4.97" height="1.85" transform="translate(21.26 150.46) rotate(-46.13)"/>
    <path class="cls-2" d="M312.77,159.73c2.27,2.99,1.84,5.66.97,8.38-1.57-2.66-2.08-5.43-.97-8.38Z"/>
  </g>
</svg>