<?xml version="1.0" encoding="UTF-8"?>
<svg id="Layer_1" data-name="Layer 1" xmlns="http://www.w3.org/2000/svg" viewBox="0 0 396.88 396.88">
  <defs>
    <style>
      .cls-1 {
        fill: #0a0a0b;
        stroke: #000;
      }

      .cls-1, .cls-2 {
        stroke-miterlimit: 10;
      }

      .cls-2 {
        fill: none;
        stroke: #b19563;
        stroke-width: 2px;
      }
    </style>
  </defs>
  <circle class="cls-1" cx="198.44" cy="198.44" r="197.94"/>
  <g>
    <path class="cls-2" d="M340.28,198.12c0,78.28-63.46,141.73-141.73,141.73S56.81,276.4,56.81,198.12,120.27,56.39,198.54,56.39s141.73,63.46,141.73,141.73ZM337.69,198.18c0-76.85-62.3-139.15-139.15-139.15S59.4,121.33,59.4,198.18s62.3,139.15,139.15,139.15,139.15-62.3,139.15-139.15Z"/>
    <path class="cls-2" d="M108.83,107.78c4.43-.04,23.83-29.11,78.42-36.15,2.57-.33,6.64.67,8.45-1.51l2.9-7.75c1.78,2.69,2.05,5.5,2.81,9.21,9.42-.64,17.9.85,26.6,3.29l10.96,3.08c18.15,6.33,34.18,15.96,47.99,29.7l6.29-4.49c-.68,3.11-3.07,3.87-4.52,6.28l10.9,12.88c9.72,11.48,15.42,25.37,20.05,39.78l4.63,23.51c.51,2.57-.68,5.82.74,8.33l6.2,4.01c-1.36,2.28-3.48,3.86-7.05,3.73.98,6.43-.26,12.12-1.66,18.13l-3.62,15.44c-4.1,17.5-20.63,44.67-32.75,55.34-24.81,21.83-51.3,33.9-84.72,34.91-.09,3.48-1.14,5.76-2.91,8.16-1.7-2.62-2.02-5.03-2.64-8.05-34.16-2.59-54.73-10.54-80.78-31.83l-6.11-4.99-3.91-5.05-12.04-16.06c-13.43-20.13-20.13-43.33-21.11-66.9-2.65,1.05-6.12-.56-6.33-2.9,1.11-1.45,4.32-2.32,6.53-2.44l1-10.91c1.81-19.82,8.67-38.11,19.19-54.83l13.12-16.87c1.11-1.42,2.59-2.05,2.52-4.44l-.35-.66c-1.96-.58-4.32-1.27-4.63-4.43,2.68.77,3.83,2.39,5.2,3.81l.62.65ZM278.37,181.81c8.78-3.68,19.27-3.37,24.8,2.12,5.11,5.08,10.54,10.21,18.4,12.12.9-7.66-.21-14.68-2.07-21.46l-3.45-12.57c-3.86-14.06-11.91-28.62-20.98-40.35-13.02-16.84-30.35-29.19-49.79-38.02l-14.17-4.95-15.54-3.63c-5.07-1.19-10.04-2.15-15.28-.93,2.68,12.6,14.46,18.36,16.53,25.88,1.62,5.88,1.12,12.01-1.62,17.65l8.82,2.25c6.07,1.55,10.22,6.49,12.67,12.34,3.51,8.36,1.71,17.89-3.72,25.11-1.38,1.83-.86,3.35.75,4.82l4.67,4.28c6.73-7.09,16.69-9.24,25.57-6.42,7.12,2.26,15.7,12.24,14.4,21.76ZM118.51,180.71c1.1-5.02,2.01-9.71,5.28-13.59,9.16-10.88,25.32-11.12,35.61-.59l6.59-6.89c-3.35-5.17-5.96-10.08-6.76-16.05.1-14.2,8.57-24.33,23.27-25.17-4.75-10.15-2.8-20.87,5.03-28.49,4.31-4.2,7.61-9.39,9.16-15.37-7.75-1.68-14.24.32-21.13,2.17l-15.02,4.04c-3.38.91-6.21,2.11-9.47,3.61l-11.72,5.41c-23.11,13.73-40.42,31.5-52.01,56.03-7.41,15.69-11.66,32.2-12.31,50.13,3.66-.1,6.48-1.55,8.94-3.6l9.85-8.2c7.35-6.11,14.63-5.66,24.69-3.46ZM134.69,196.64l12.54.08,17.99.24c3.26.04,6.46,1.49,9.8.42.64-10.49,7.6-19.64,18.01-21.91,2.2-.48,4.34-1.33,5.76-2.38,1.86,1.68,4.05,1.97,6.4,2.67,9.78,2.89,16.08,11.65,16.89,21.64,5.44.91,10.12-.58,15.14-.6l23.03-.1c10.67-.05,14.35-5.4,15.79-3.29.32.47.47,2.09.7,3.01l15.46.12c2.24.02,3.96-1.44,5.9-2.04,5.41,2.92,10.9,3.99,16.98,2.45l-9.4-6.85c-3.19-2.33-5.89-5.67-9.78-7.1-5.59-2.05-11.51-1.08-16.64,1.61-1.3.68-2.28,1.21-3.94.71,1.65-9.81-3.76-19.1-12.81-22.35-8.84-3.18-18.3-.03-23.71,8.09-.34.26-1.7.21-1.87-.12-2.36-4.74-6.26-8.31-11.28-11.41,7.61-6.42,11.94-15.68,9.02-24.35-2.99-8.88-11.5-14.57-20.87-14.24-.96.03-3.08,1.33-3.79-.21l4.38-10.14c1.24-2.86.55-6.64-.58-9.59-1.58-4.12-4.71-7.16-7.34-10.56l-6.97-9.03c-.32,4.61.56,8.5,1.42,12.68.22,1.07,2.69,3.23,2.2,4.2-1.5,2.75-2.87,5.15-2.86,8.32l.03,19.11,1.88,3.72-1.8,5.3-.22,30.95c0,.71-1.78.87-2.12.47-.46-.54-.69-1.4-.72-2.58l-.76-28.44c-.11-4.23-1.17-5.6-.04-10.06,1.55-6.07.46-13.66.42-20.08l-2.79-7.32c2.78-4.29,4.51-8.8,2.82-14.51l-11.15,13.96c-3.89,4.87-4.16,11.03-1.8,16.7,1.08,2.61,2.63,4.6,3.18,7.92-7.21-1.07-13.78.63-18.78,5.51-4.19,4.08-7.08,10.78-6,17.2,1.06,6.28,5.22,10.3,9.49,14.78-5.65,3.46-9.1,7.04-12.67,12.4-4.97-6.88-11.43-10.61-19.25-9.89-11.43,1.06-19.83,12.21-18.27,23.67-2.75.38-3.63-1.51-5.15-2.19-8.36-3.71-17.88-.73-23.79,5.85-2.96,3.3-6.21,4.92-10.42,7.81,6.09,1.43,11.42.23,16.86-2.21l4.23,1.74,19.02-.06-2.28-2.18c-.44-.43.38-1.7,1.16-1.4,4.22,1.62,8.11,3.84,13.33,3.88ZM218.38,198.22c0-10.96-8.89-19.85-19.85-19.85s-19.85,8.89-19.85,19.85,8.89,19.85,19.85,19.85,19.85-8.89,19.85-19.85ZM162.32,253.05c-1.23,8.51,2.89,15.33,9.02,19.49,5.08,3.44,9.98,3.73,16.24,2.34-2.17,5.85-4.78,9.6-4.99,14.96-.15,3.81,1.41,8.54,3.72,11.72l10.5,14.44c1.72-5.02.03-10.38-2.81-15.14,2.76-2.28,2.62-5.17,2.71-8.22l.44-16.06c.07-2.46-1.32-4.35-2.13-6.49l2.33-10.43.28-30.84c.02-2.22,1.61-4.43.06-6.96-12.24-1.23-22.15-10.18-22.74-22.7l-7.79.29-31.91.24c-2.48.02-5.11.64-7.29,1.62l-7.64,3.42c-.2-2.04.89-2.69,2.18-4.21-6.41-1.11-11.86-1.23-18.01-.62l-5.17,2.42-4.28-2.39c-4.76-.49-9-.85-14.04.03,3.86,1.61,7.39,4.1,10.41,7.51,7.81,8.78,19.77,10.68,29.97,2.54-.85,9.69,2.94,17.65,10.61,21.8,9.51,5.15,20,2.8,26.52-7.09,3.56,5.54,6.88,9.6,12.16,12.55,2.26,1.26-6.79,5.07-8.34,15.76ZM239.54,227.24c2.13,3.13,5.34,4.16,8.45,5.63,5.12,2.43,9.61,2.32,14.73.25,8.67-3.5,13.99-11.59,12.69-21.57,2.53-.13,4.69.88,6.9,2,6.37,3.26,13.49,2.56,18.59-2.36l6.05-5.84c2.55-2.47,5.09-3.75,8.05-5.45-4.91-.75-8.43-.44-12.54.13l-4.91,2.81c-2.25-1.98-4.51-3.17-7.3-3.16l-13.89.08-.24,5.2c-6.31-4.12-12.65-5.33-19.87-5.39l-34.03-.27c-1.72,12.49-10.68,21.38-22.68,22.5-.75,2.36.62,4.58.63,6.79l.15,32.03,1.65,8.78c-1.14,3.42-1.94,5.51-1.83,9.28l.45,15.65c.08,2.82,0,4.59,2.72,6.2-2.71,4.57-5.09,9.86-2.98,15.65,2.71-5.05,6.18-8.69,9.75-12.68,5.32-5.94,6.52-13.73,3.41-21.09-.98-2.32-2.82-4.01-3.33-6.98,7.7,1.03,15.21-1.02,20.14-6.72,8.35-9.66,6.34-22.28-4.44-31.28,8.85-3.81,11.01-14.12,13.69-10.19ZM179.74,290.71c.06-4.2,1.51-7.77,2.6-12.01-4.95.26-8.74-1.21-12.51-3.62-10.31-6.6-13.83-19.12-7.98-30.01l3.94-7.32c-2.46-2.63-4.46-5.05-7.6-7.13-7.35,6.87-16.79,9.05-26.05,4.99-7.2-3.16-12.92-10.62-13.68-20.56-9.86,5.53-20.69,3.06-27.95-4.67-4.25-4.53-9.29-7.92-15.28-9.85-.6,5.16.9,9.63,1.41,14.51.66,6.33,1.77,12.12,3.89,18.09l3.17,8.93c3.32,9.34,7.9,17.43,13.33,25.78,10,15.38,23.27,27.49,38.84,37.11l14.85,7.32,11.67,4.36,15.41,3.53c5.8,1.33,11.28,2.52,18.06,1.69-3.06-13.12-16.33-16.7-16.13-31.15ZM216.16,299.57c-2.83,7.08-12.19,12.04-14.9,22.27,7.96.77,15.53.08,22.99-2.09l15.55-4.53c13.77-4.01,25.87-11.85,37.01-21.03,8.52-7.02,15.49-15.18,22.02-23.98l9.81-17.24,7.15-19.06c3.44-9.18,7.07-24.24,5.41-33.38-7.44,2.05-12.71,6.97-17.69,12.24-5.83,6.16-17.19,7-24.34,1.99-1.36,1.82-.66,3.24-.94,4.79-1.56,8.49-8.26,14.65-15.01,16.88-8.92,2.94-17.06.57-24.2-5.5-2.8,1.73-4.8,4.31-6.88,6.78.22,2.53,1.96,3.95,3.16,6,4.21,7.22,4.26,16.4-.25,23.83-3.89,6.41-11.05,11.13-19.91,11.13,3.17,6.82,3.77,14.04,1.03,20.91Z"/>
    <path class="cls-2" d="M106.35,292.55c-1.23,1.71-3.17.23-1.01-.96.97-1.9,3.16-.41,1.01.96Z"/>
    <path class="cls-2" d="M289.7,291.69c-.86-.48-.6-1.74.38-1.84l.74,1.54c1.06.16,2.73,1.5,1.96,3.16-.54.55-2.28-.75-2.27-2.05,0-.51-.6-.78-.8-.81Z"/>
    <circle class="cls-2" cx="198.44" cy="198.44" r="4.98"/>
  </g>
</svg>