<?xml version="1.0" encoding="UTF-8"?>
<svg id="Layer_1" data-name="Layer 1" xmlns="http://www.w3.org/2000/svg" viewBox="0 0 396.88 396.88">
  <defs>
    <style>
      .cls-1 {
        fill: #0a0a0b;
        stroke: #000;
      }

      .cls-1, .cls-2 {
        stroke-miterlimit: 10;
      }

      .cls-2 {
        fill: none;
        stroke: #b19563;
        stroke-width: 2px;
      }
    </style>
  </defs>
  <circle class="cls-1" cx="198.44" cy="198.44" r="197.94"/>
  <g>
    <path class="cls-2" d="M179.73,289.15c.15-1.53.56-1.77.89-2.28l.1,1.52c.04.55-.25.92-.98.75Z"/>
    <path class="cls-2" d="M305.84,302.05c-51.33,66.9-150.68,71.67-208.31,7.17-20.5-22.95-34.37-52.79-38.62-83.21-8.26-59.14,17.32-120.54,67.45-153.39,27.5-18.02,59.47-25.04,92.26-20.1,28.42,4.28,54.9,17.06,74.38,37.95l10.68,11.45c47.43,60.22,48.77,139.39,2.16,200.13ZM197.62,146.77c0-7.55-3.52-7.31-3.74-9.5-.12-1.24,5.57-6.66-1.14-17.27-1.34-2.11-3.89-2.12-5.95-2.21-3.07-.13-4,.99-4.89,3.74-.3.92-2.84-.04-3.29-1.59-.84-2.89.12-5.62,1.63-7.18,1.95-2.02,4.74-2.57,7.48-1.84,4.62,1.23,6.74,5.32,8.96,9.56l.3-19.61c.05-3.52-.58-6.84-2.47-9.92l-4.3-2.33c3.5-6.24,7.13-12.74,7.22-20l.16-13.99c-37.26-.26-71.91,16.65-97.15,44.67,5.53,4.97,13.1,8.21,20.67,5.52-.31,3.27-.48,7.9,2.26,10.33l13.86,12.25c10.11,8.94,17.67,19.61,25.15,30.83l4.04,6.05c7.68,13.45,15.19,26.76,18.94,41.85l6.37,25.64,3.88,28.14c.29,2.14-.58,4.33.81,6.09l1.2-8.36.02-110.89ZM201.72,133.58c.44,1.2,2.26,2.07,1.57,3.63-1.36,3.07-3.55,3.06-3.55,5.81v121.97c1.85-1.68,2.18-4.41,2.35-7,1.13-16.67,4.18-32.17,8.57-48.23,4.74-17.33,12.16-33.05,21.64-48.21l14.24-19.79c6.66-9.26,15.05-16.85,24.13-23.86,3.78-2.92,5.71-6.88,4.96-12.28,8.05,1.28,15.57-1.12,21.13-6.24-2.57-4.32-5.62-6.12-8.64-8.97-23.62-22.28-55.62-35.82-88.36-35.71l.4,16.04c1.09,6.47,4.42,11.92,6.8,18.11l-4.04,2.23c-1.87,2.43-3.06,5.77-3,8.82l.38,20.05c2.97-4.04,4.4-7.39,8.46-9s8.8.66,9.89,5c.74,2.98-.82,5.74-3.66,5.99.09-1.7-.17-3.27-1.08-3.64l-2.5-1,3.92-1.16c-.59-2.4-2.29-3.89-3.92-3.83s-3.01.76-4.56,2.17c.35.96.98,1.51,2.59,2.87-6.37,1.42-9.6,10.99-7.69,16.23ZM198.77,94.62c1.76-3.78,2.06-5.35,4.92-7.29l-5.46-10.65c-1.01,4.03-2.18,6.88-4.04,10.16l4.58,7.78ZM94.14,151.14c4.56-12.05,10.89-22.78,18.9-32.62-2.61-1.03-2.97-2.48-3.41-4.42-1.39-6.02-5.92-10.49-11.59-12.48-11.06,13.34-19.44,27.36-25.82,43.65,5.5,3.48,12.48,3.55,18.3.08l3.63,5.77ZM306.17,145.57c7.5,5.63,19.31,1.09,18.71-.44-6.27-16.13-15.15-30.26-25.81-43.39l-8.29,5.28c-3.89,2.48-2.94,10.08-7.2,11.36,9.51,9.84,14.84,21.03,19.47,32.95,1.29-2.4.98-4.01,3.12-5.76ZM120.23,113.39c-1.51-3.44-2.03-4.16-3.32-5.62-3.2.44-5.25-.16-8.29-.91,2,3.32,2.99,5.74,3.61,9.3l8-2.77ZM284.57,114.96c.74-4,1.85-5.36,3.1-8.05l-8.79,1.21-1.9,5.81c3.4.77,5.07,1.28,7.58,1.03ZM190.15,115.85c-1.21-3.33-3.36-2.74-4.9-2.88-1.73-.16-3.51,2.4-2.63,3.48,2.42.63,4.8.08,7.54-.59ZM171.04,230.11c6.15,11.62,8.87,23.21,12.22,36.11l.3-45.23-.76-11.08c-.62-9.11-4.54-17.31-8.81-25.18l-8.85-16.31-4.47-7.48c-8.21-13.74-37.73-48.29-43.45-43.6-4.56,3.74-7.73,8.62-10.44,13.67l-10.18,18.93c-1.29,2.4-.7,5,1.73,6.36l6.42,3.56,11.16,6.84c10.95,6.71,34.36,30.48,41.02,41.04l14.11,22.39ZM221.64,238.28c4.19-10.82,10.07-19.72,16.85-28.56l6.96-9.07,17.62-19.4,19.33-15.56,15.11-8.99c1.2-.71,3.8-1.69,3.38-3.79-1.02-5.04-3.76-9.5-6-14.09-3.76-7.74-8.27-14.69-14.45-20.63-1.95-1.88-4.35-1.4-6.35.17-22.75,17.92-40.01,41.95-51.78,68.43.77,5.47-.73,12.22-3.34,16,.37-2.04.39-3.84-1.03-5.29-1.92,4.41-3.77,8.14-4.11,12.47l-.93,11.96v40.18s5.56-17.45,5.56-17.45l3.17-6.37ZM85.84,197.96l.68-13.04c.24-4.65,1.05-8.74,2.09-13.16l3.28-13.98c-2.62-.17-3.93.7-6.26,1.62-2.59-6.65-7.92-10.72-14.72-11.53l-4.07,13.19c-3.62,11.72-5.08,23.5-6.25,35.75l8.14.42c5.06.26,9.25-2.1,12.87-4.94,2.14-1.68,1.04,4.49,4.25,5.68ZM93.32,154.04c-.96-2.16-2.19-3.7-3.61-5.46l-8.13,1.49,4.77,5.53c1.32,1.53,5.44.2,6.96-1.57ZM309.74,156.83c1.66-3.22,3.19-4.48,5.23-6.76-3.38-.21-5.46-.32-8.38-1.44-1.11,1.64-2.95,4-2.52,6.03.86,1.35,3.83,1.93,5.67,2.17ZM310.97,197.25c3.4-1.43,2.5-3.64,2.57-5.36l6.74,4.46c5.18,1.94,10.74,1.54,16.14-.14-1.1-16.84-4.12-32.58-10.38-47.91-7.13.78-12.71,4.62-15.04,10.92l-5.76-1.25,3.97,14.57c1.03,3.77,1.46,5.29,1.53,9.46l.23,15.27ZM169.28,268.56l6.27,16.56c.41-11.65-2.09-22.24-4.63-33.35-3.15-13.76-8.58-26.49-15.06-38.89l-9.68-13.47c-10.16-14.13-34.28-35.3-51.95-41.94l-2.89,17.55,2.52,11.14c-.37.63-2.17.63-2.51-.34-.21-.62-.27-1.67-1.77-2.11-1.13,5.9-1.26,11.33-.83,17.07l16.57,5.76c28.07,12.02,50.87,33.96,63.97,62.02ZM288.88,208.18l19.75-7.17c.48-6.09.37-11.27-1.02-17.39-1.7.85-2.21,2.67-3.17,3.79-3.92.66,2.21-5.24,2.16-10.58-.06-6.57-1.96-12.8-3.79-19.1-19.75,6.86-45.52,30.04-56.28,46.99l-7.03,11.08-7.84,17.22c-6.31,17.85-10.81,35.81-12.01,54.81,1.68-.17,1.8-1.5,2.13-2.79,6.6-26.04,24.91-51.07,47.16-65.84,6.47-4.3,12.62-8.37,19.93-11.02ZM79.53,203.44c1.24.47,4.93-1.18,5.04-2.48.19-2.17-2.01-4.07-3.35-5.81-2.12,1.81-4.46,2.65-7.98,3.97,2.12,1.47,3.53,3.27,6.29,4.32ZM317.57,203.97l5.69-4.23-8.11-3.74-3.46,5.07c.39,1.51,4.54,3.9,5.89,2.9ZM86.28,217.24l-.19-13.7c-3.04.06-4.63,1.43-6.5,3.58l-2.94-3.16c-3.93-4.23-10.04-4.89-15.86-5.05l.23,16.65c1.32,10.64,2.69,20.82,5.87,31.06,4.51,14.52,9.88,28.16,18.6,40.9l1.17-31.62-.39-38.67ZM311.36,287.73c7.71-9.88,12.05-20.77,16.21-32.08,6.39-17.39,9.86-38.07,8.98-56.68-5.48-.06-10.91,1.11-15.31,4.52l-3.48,4.46c-1.87-1.86-3.56-3.59-6.56-3.42l.17,83.2ZM175.96,302.42c-.03-10.95-6.79-29.85-12.11-38.45l-8.11-13.1c-13.21-18.11-30.13-32.18-50.59-41.37-5.44-2.44-10.22-5.34-16.43-5.48l-.09,88.84,14.78,17.4c7.1,8.35,15.89,14.79,25.24,20.73s20.06,10.5,30.89,14.25c5.37,1.86,10.32,3.52,16.54,3.79l-.13-46.6ZM220.62,307.41v41.79c6.51-.25,11.97-2.28,18.13-4.21,28.85-9.04,53.39-27.8,70.01-52.76l.09-88.46-18.67,6.64c-22.43,10.24-38.61,24.18-52.32,44.68-5.92,8.86-9.88,18.59-13.44,28.61-2.71,7.61-3.81,15.06-3.81,23.72ZM215.59,277.59c-2.15,2.9-2.35,5.51-2.35,8.32l.08,64.12c1.76.56,3.06.19,4.32-.34l.47-69.56c.11-17.16,9.72-48.1,18.87-64.05-1.48.71-2.61,2.34-3.39,3.69l-4.74,8.24-7.32,15.73c-3.55,7.63-6.72,20.94-4.95,29.36-1.19-1.18-1.42-2.31-2.35-4.46-1.27,2.98-.68,6.15,1.37,8.95ZM189.55,264.28l3.13-7.52c-1.37-12.53-2.21-24.65-6.54-37.15l-.29,32.3v21.29c1.95-2.57,2.92-5.11,3.7-8.92ZM164.95,226.71l.22-1.45-.22,1.45ZM210.27,270.91l.12-21.01-1.22-24.29c-3.73,11.53-3.92,22.59-5.41,33.69l6.5,11.61ZM179.73,289.15l-1.04,8.8-.17,51.8,4.65.22.45-12.07v-47.96c-.01-1.9.03-3.34-1.14-5.28l-1.87,2.21c-.17-2.71,2.44-7.36.37-18.24-2.47-13-6.09-25.23-11.83-37.13-.81-1.68-1.95-3.5-2.92-4.48-.17.13-.34.34-.75.5l9.06,27.53c1.82,5.53,2.39,11.07,2.85,16.98l1.15,14.96c-.08,1.13.16,1.92,1.18,2.15ZM197.01,350.8l-.24-63.83c-.02-6.45-.75-12.4-2.57-18.45-.87-2.9-.95-5.49-.88-8.97l-4.11,13.98-3.46,6.74-.17,70.17c4.18.63,7.54,1.5,11.43.35ZM210.89,350.47l-.2-69.52c-.01-4.06-1.1-7.46-3.2-10.8l-3.7-5.89-2.89,15.86-.35,36.8-.27,33.95c3.88.71,7.02.73,10.61-.39Z"/>
  </g>
</svg>